<svg width="1200" height="630" viewBox="0 0 1200 630" xmlns="http://www.w3.org/2000/svg">
  <rect width="1200" height="630" fill="#0a0a0a"/>

  <pattern id="dots" x="0" y="0" width="20" height="20" patternUnits="userSpaceOnUse">
    <circle cx="10" cy="10" r="0.8" fill="#222"/>
  </pattern>
  <rect width="1200" height="630" fill="url(#dots)"/>

  <defs>
    <marker id="arrow-static" viewBox="0 0 10 10" refX="10" refY="5" markerWidth="5" markerHeight="5" orient="auto-start-reverse">
      <path d="M 0 0 L 10 5 L 0 10 z" fill="#555"/>
    </marker>
    <marker id="arrow-dynamic" viewBox="0 0 10 10" refX="10" refY="5" markerWidth="5" markerHeight="5" orient="auto-start-reverse">
      <path d="M 0 0 L 10 5 L 0 10 z" fill="#f59e0b"/>
    </marker>
  </defs>

  <!-- ===== ENTRY NODE: App.tsx ===== -->
  <rect x="225" y="38" width="170" height="78" rx="6" fill="#111" stroke="#facc15" stroke-width="2"/>
  <rect x="278" y="22" width="64" height="16" rx="8" fill="#facc15"/>
  <text x="310" y="33" text-anchor="middle" font-family="monospace" font-size="9" font-weight="700" fill="#000">ENTRY</text>
  <text x="245" y="60" font-family="monospace" font-size="12" font-weight="600" fill="#fff">App.tsx</text>
  <line x1="240" y1="68" x2="380" y2="68" stroke="#2a2a2a" stroke-width="1"/>
  <text x="245" y="82" font-family="monospace" font-size="9" fill="#22c55e">export</text>
  <text x="282" y="82" font-family="monospace" font-size="9" fill="#e0e0e0">default</text>
  <rect x="240" y="94" width="140" height="14" rx="7" fill="#22c55e20"/>
  <text x="310" y="104" text-anchor="middle" font-family="monospace" font-size="8" fill="#22c55e">1/1 used</text>
  <circle cx="293" cy="116" r="3.5" fill="#555"/>
  <circle cx="327" cy="116" r="3.5" fill="#f59e0b"/>

  <!-- ===== EDGES FROM APP ===== -->

  <!-- Static edge: App -> Nav (horizontal at y=160, label centered ON the line) -->
  <path d="M 293 120 L 293 160 L 115 160 L 115 236" stroke="#555" stroke-width="1.5" fill="none" marker-end="url(#arrow-static)"/>
  <rect x="149" y="151" width="110" height="18" rx="9" fill="#1a1a1a" stroke="#333" stroke-width="1"/>
  <text x="204" y="163" text-anchor="middle" font-family="monospace" font-size="8" fill="#a0a0a0">import { default }</text>

  <!-- Dynamic edge: App -> Dashboard (horizontal at y=160, label centered ON the line) -->
  <path d="M 327 120 L 327 160 L 525 160 L 525 236" stroke="#f59e0b" stroke-width="1.5" stroke-dasharray="6 3" fill="none" marker-end="url(#arrow-dynamic)"/>
  <rect x="364" y="151" width="125" height="18" rx="9" fill="#1f1709" stroke="#5c3a06" stroke-width="1"/>
  <text x="426" y="163" text-anchor="middle" font-family="monospace" font-size="8" fill="#f59e0b">import() { default }</text>

  <!-- Dynamic edge: App -> Settings (vertical, label centered ON the line at midpoint) -->
  <path d="M 327 120 L 327 205 L 315 205 L 315 236" stroke="#f59e0b" stroke-width="1.5" stroke-dasharray="6 3" fill="none" marker-end="url(#arrow-dynamic)"/>
  <rect x="265" y="189" width="125" height="18" rx="9" fill="#1f1709" stroke="#5c3a06" stroke-width="1"/>
  <text x="327" y="201" text-anchor="middle" font-family="monospace" font-size="8" fill="#f59e0b">import() { default }</text>

  <!-- ===== NAV NODE ===== -->
  <rect x="30" y="240" width="170" height="78" rx="6" fill="#111" stroke="#3b82f6" stroke-width="2"/>
  <circle cx="115" cy="240" r="3.5" fill="#555"/>
  <text x="50" y="262" font-family="monospace" font-size="12" font-weight="600" fill="#fff">Nav.tsx</text>
  <line x1="45" y1="270" x2="185" y2="270" stroke="#2a2a2a" stroke-width="1"/>
  <text x="50" y="284" font-family="monospace" font-size="9" fill="#22c55e">export</text>
  <text x="87" y="284" font-family="monospace" font-size="9" fill="#e0e0e0">default</text>
  <rect x="45" y="296" width="140" height="14" rx="7" fill="#22c55e20"/>
  <text x="115" y="306" text-anchor="middle" font-family="monospace" font-size="8" fill="#22c55e">1/1 used</text>
  <circle cx="98" cy="318" r="3.5" fill="#555"/>
  <circle cx="132" cy="318" r="3.5" fill="#f59e0b"/>

  <!-- ===== SETTINGS NODE ===== -->
  <rect x="230" y="240" width="170" height="78" rx="6" fill="#111" stroke="#f97316" stroke-width="2"/>
  <circle cx="315" cy="240" r="3.5" fill="#555"/>
  <text x="250" y="262" font-family="monospace" font-size="12" font-weight="600" fill="#fff">Settings.tsx</text>
  <line x1="245" y1="270" x2="385" y2="270" stroke="#2a2a2a" stroke-width="1"/>
  <text x="250" y="284" font-family="monospace" font-size="9" fill="#22c55e">export</text>
  <text x="287" y="284" font-family="monospace" font-size="9" fill="#e0e0e0">default</text>
  <rect x="245" y="296" width="140" height="14" rx="7" fill="#22c55e20"/>
  <text x="315" y="306" text-anchor="middle" font-family="monospace" font-size="8" fill="#22c55e">1/1 used</text>
  <circle cx="298" cy="318" r="3.5" fill="#555"/>
  <circle cx="332" cy="318" r="3.5" fill="#f59e0b"/>

  <!-- ===== DASHBOARD NODE ===== -->
  <rect x="440" y="240" width="170" height="78" rx="6" fill="#111" stroke="#10b981" stroke-width="2"/>
  <circle cx="525" cy="240" r="3.5" fill="#555"/>
  <text x="460" y="262" font-family="monospace" font-size="12" font-weight="600" fill="#fff">Dashboard.tsx</text>
  <line x1="455" y1="270" x2="595" y2="270" stroke="#2a2a2a" stroke-width="1"/>
  <text x="460" y="284" font-family="monospace" font-size="9" fill="#22c55e">export</text>
  <text x="497" y="284" font-family="monospace" font-size="9" fill="#e0e0e0">default</text>
  <rect x="455" y="296" width="140" height="14" rx="7" fill="#22c55e20"/>
  <text x="525" y="306" text-anchor="middle" font-family="monospace" font-size="8" fill="#22c55e">1/1 used</text>
  <circle cx="508" cy="318" r="3.5" fill="#555"/>
  <circle cx="542" cy="318" r="3.5" fill="#f59e0b"/>

  <!-- ===== EDGE: Dashboard -> Chart (vertical, label centered ON the line at midpoint) ===== -->
  <path d="M 508 322 L 508 359 L 515 359 L 515 396" stroke="#555" stroke-width="1.5" fill="none" marker-end="url(#arrow-static)"/>
  <rect x="456" y="350" width="110" height="18" rx="9" fill="#1a1a1a" stroke="#333" stroke-width="1"/>
  <text x="511" y="362" text-anchor="middle" font-family="monospace" font-size="8" fill="#a0a0a0">import { default }</text>

  <!-- ===== CHART NODE ===== -->
  <rect x="430" y="400" width="170" height="96" rx="6" fill="#111" stroke="#10b981" stroke-width="2"/>
  <circle cx="515" cy="400" r="3.5" fill="#555"/>
  <text x="450" y="422" font-family="monospace" font-size="12" font-weight="600" fill="#fff">Chart.tsx</text>
  <line x1="445" y1="430" x2="585" y2="430" stroke="#2a2a2a" stroke-width="1"/>
  <text x="450" y="444" font-family="monospace" font-size="9" fill="#22c55e">export</text>
  <text x="487" y="444" font-family="monospace" font-size="9" fill="#e0e0e0">default</text>
  <text x="450" y="458" font-family="monospace" font-size="9" fill="#22c55e">export</text>
  <text x="487" y="458" font-family="monospace" font-size="9" fill="#555">ChartOptions</text>
  <rect x="445" y="470" width="140" height="14" rx="7" fill="#22c55e20"/>
  <text x="515" y="480" text-anchor="middle" font-family="monospace" font-size="8" fill="#22c55e">1/2 used</text>
  <circle cx="498" cy="496" r="3.5" fill="#555"/>
  <circle cx="532" cy="496" r="3.5" fill="#f59e0b"/>

  <!-- ===== CHUNK LEGEND ===== -->
  <rect x="60" y="555" width="10" height="10" rx="2" fill="#3b82f6"/>
  <text x="76" y="564" font-family="monospace" font-size="10" fill="#666">Main Bundle</text>
  <rect x="185" y="555" width="10" height="10" rx="2" fill="#f97316"/>
  <text x="201" y="564" font-family="monospace" font-size="10" fill="#666">Async Chunk</text>
  <rect x="310" y="555" width="10" height="10" rx="2" fill="#10b981"/>
  <text x="326" y="564" font-family="monospace" font-size="10" fill="#666">Async Chunk</text>

  <!-- ===== TITLE ===== -->
  <text x="900" y="320" text-anchor="middle" font-family="monospace" font-size="36" font-weight="700" fill="#fff">How</text>
  <text x="900" y="365" text-anchor="middle" font-family="monospace" font-size="36" font-weight="700" fill="#fff">Bundling</text>
  <text x="900" y="410" text-anchor="middle" font-family="monospace" font-size="36" font-weight="700" fill="#fff">Works</text>
  <text x="900" y="445" font-family="monospace" font-size="12" fill="#666" text-anchor="middle">Code splitting, chunks &amp; tree shaking</text>
  <text x="900" y="462" font-family="monospace" font-size="12" fill="#666" text-anchor="middle">visualized with a real Rollup bundler</text>
</svg>
