<svg width="1200" height="630" viewBox="0 0 1200 630" xmlns="http://www.w3.org/2000/svg">
  <rect width="1200" height="630" fill="#0a0a0a"/>

  <pattern id="dots" x="0" y="0" width="20" height="20" patternUnits="userSpaceOnUse">
    <circle cx="10" cy="10" r="0.8" fill="#222"/>
  </pattern>
  <rect width="1200" height="630" fill="url(#dots)"/>

  <g transform="translate(50, 0)">
  <defs>
    <marker id="arrow-static" viewBox="0 0 10 10" refX="10" refY="5" markerWidth="5" markerHeight="5" orient="auto-start-reverse">
      <path d="M 0 0 L 10 5 L 0 10 z" fill="#555"/>
    </marker>
    <marker id="arrow-dynamic" viewBox="0 0 10 10" refX="10" refY="5" markerWidth="5" markerHeight="5" orient="auto-start-reverse">
      <path d="M 0 0 L 10 5 L 0 10 z" fill="#f59e0b"/>
    </marker>
  </defs>

  <!-- ===== ENTRY NODE: App.tsx ===== -->
  <rect x="215" y="53" width="190" height="90" rx="6" fill="#111" stroke="#facc15" stroke-width="2"/>
  <rect x="276" y="33" width="68" height="20" rx="10" fill="#facc15"/>
  <text x="310" y="48" text-anchor="middle" font-family="monospace" font-size="14" font-weight="700" fill="#000">ENTRY</text>
  <text x="230" y="78" font-family="monospace" font-size="18" font-weight="600" fill="#fff">App.tsx</text>
  <line x1="230" y1="86" x2="390" y2="86" stroke="#2a2a2a" stroke-width="1"/>
  <text x="230" y="103" font-family="monospace" font-size="14" fill="#22c55e">export</text>
  <text x="285" y="103" font-family="monospace" font-size="14" fill="#e0e0e0">default</text>
  <rect x="230" y="113" width="160" height="16" rx="8" fill="#22c55e20"/>
  <text x="310" y="125" text-anchor="middle" font-family="monospace" font-size="12" fill="#22c55e">1/1 used</text>
  <circle cx="290" cy="143" r="4.5" fill="#555"/>
  <circle cx="330" cy="143" r="4.5" fill="#f59e0b"/>

  <!-- ===== EDGES FROM APP ===== -->

  <!-- Static edge: App -> Nav -->
  <path d="M 290 148 L 290 190 L 110 190 L 110 262" stroke="#555" stroke-width="1.5" fill="none" marker-end="url(#arrow-static)"/>
  <rect x="133" y="179" width="134" height="22" rx="11" fill="#1a1a1a" stroke="#333" stroke-width="1"/>
  <text x="200" y="194" text-anchor="middle" font-family="monospace" font-size="11" fill="#a0a0a0">import { default }</text>

  <!-- Dynamic edge: App -> Dashboard -->
  <path d="M 330 148 L 330 190 L 545 190 L 545 262" stroke="#f59e0b" stroke-width="1.5" stroke-dasharray="6 3" fill="none" marker-end="url(#arrow-dynamic)"/>
  <rect x="406" y="179" width="148" height="22" rx="11" fill="#1f1709" stroke="#5c3a06" stroke-width="1"/>
  <text x="480" y="194" text-anchor="middle" font-family="monospace" font-size="11" fill="#f59e0b">import() { default }</text>

  <!-- Dynamic edge: App -> Settings (straight vertical) -->
  <path d="M 330 148 L 330 262" stroke="#f59e0b" stroke-width="1.5" stroke-dasharray="6 3" fill="none" marker-end="url(#arrow-dynamic)"/>
  <rect x="256" y="204" width="148" height="22" rx="11" fill="#1f1709" stroke="#5c3a06" stroke-width="1"/>
  <text x="330" y="219" text-anchor="middle" font-family="monospace" font-size="11" fill="#f59e0b">import() { default }</text>

  <!-- ===== NAV NODE ===== -->
  <rect x="15" y="267" width="190" height="90" rx="6" fill="#111" stroke="#3b82f6" stroke-width="2"/>
  <circle cx="110" cy="267" r="4.5" fill="#555"/>
  <text x="30" y="292" font-family="monospace" font-size="18" font-weight="600" fill="#fff">Nav.tsx</text>
  <line x1="30" y1="300" x2="190" y2="300" stroke="#2a2a2a" stroke-width="1"/>
  <text x="30" y="317" font-family="monospace" font-size="14" fill="#22c55e">export</text>
  <text x="85" y="317" font-family="monospace" font-size="14" fill="#e0e0e0">default</text>
  <rect x="30" y="327" width="160" height="16" rx="8" fill="#22c55e20"/>
  <text x="110" y="339" text-anchor="middle" font-family="monospace" font-size="12" fill="#22c55e">1/1 used</text>
  <circle cx="90" cy="357" r="4.5" fill="#555"/>
  <circle cx="130" cy="357" r="4.5" fill="#f59e0b"/>

  <!-- ===== SETTINGS NODE ===== -->
  <rect x="230" y="267" width="190" height="90" rx="6" fill="#111" stroke="#f97316" stroke-width="2"/>
  <circle cx="330" cy="267" r="4.5" fill="#555"/>
  <text x="245" y="292" font-family="monospace" font-size="18" font-weight="600" fill="#fff">Settings.tsx</text>
  <line x1="245" y1="300" x2="405" y2="300" stroke="#2a2a2a" stroke-width="1"/>
  <text x="245" y="317" font-family="monospace" font-size="14" fill="#22c55e">export</text>
  <text x="300" y="317" font-family="monospace" font-size="14" fill="#e0e0e0">default</text>
  <rect x="245" y="327" width="160" height="16" rx="8" fill="#22c55e20"/>
  <text x="325" y="339" text-anchor="middle" font-family="monospace" font-size="12" fill="#22c55e">1/1 used</text>
  <circle cx="305" cy="357" r="4.5" fill="#555"/>
  <circle cx="345" cy="357" r="4.5" fill="#f59e0b"/>

  <!-- ===== DASHBOARD NODE ===== -->
  <rect x="450" y="267" width="190" height="90" rx="6" fill="#111" stroke="#10b981" stroke-width="2"/>
  <circle cx="545" cy="267" r="4.5" fill="#555"/>
  <text x="465" y="292" font-family="monospace" font-size="18" font-weight="600" fill="#fff">Dashboard.tsx</text>
  <line x1="465" y1="300" x2="625" y2="300" stroke="#2a2a2a" stroke-width="1"/>
  <text x="465" y="317" font-family="monospace" font-size="14" fill="#22c55e">export</text>
  <text x="520" y="317" font-family="monospace" font-size="14" fill="#e0e0e0">default</text>
  <rect x="465" y="327" width="160" height="16" rx="8" fill="#22c55e20"/>
  <text x="545" y="339" text-anchor="middle" font-family="monospace" font-size="12" fill="#22c55e">1/1 used</text>
  <circle cx="525" cy="357" r="4.5" fill="#555"/>
  <circle cx="565" cy="357" r="4.5" fill="#f59e0b"/>

  <!-- ===== EDGE: Dashboard -> Chart (straight vertical) ===== -->
  <path d="M 525 362 L 525 420" stroke="#555" stroke-width="1.5" fill="none" marker-end="url(#arrow-static)"/>
  <rect x="458" y="380" width="134" height="22" rx="11" fill="#1a1a1a" stroke="#333" stroke-width="1"/>
  <text x="525" y="395" text-anchor="middle" font-family="monospace" font-size="11" fill="#a0a0a0">import { default }</text>

  <!-- ===== CHART NODE ===== -->
  <rect x="430" y="425" width="190" height="112" rx="6" fill="#111" stroke="#10b981" stroke-width="2"/>
  <circle cx="525" cy="425" r="4.5" fill="#555"/>
  <text x="445" y="450" font-family="monospace" font-size="18" font-weight="600" fill="#fff">Chart.tsx</text>
  <line x1="445" y1="458" x2="605" y2="458" stroke="#2a2a2a" stroke-width="1"/>
  <text x="445" y="475" font-family="monospace" font-size="14" fill="#22c55e">export</text>
  <text x="500" y="475" font-family="monospace" font-size="14" fill="#e0e0e0">default</text>
  <text x="445" y="493" font-family="monospace" font-size="14" fill="#22c55e">export</text>
  <text x="500" y="493" font-family="monospace" font-size="14" fill="#555">ChartOptions</text>
  <rect x="445" y="505" width="160" height="16" rx="8" fill="#22c55e20"/>
  <text x="525" y="517" text-anchor="middle" font-family="monospace" font-size="12" fill="#22c55e">1/2 used</text>
  <circle cx="505" cy="537" r="4.5" fill="#555"/>
  <circle cx="545" cy="537" r="4.5" fill="#f59e0b"/>

  <!-- ===== CHUNK LEGEND ===== -->
  <rect x="60" y="570" width="14" height="14" rx="2" fill="#3b82f6"/>
  <text x="80" y="583" font-family="monospace" font-size="15" fill="#666">Main Bundle</text>
  <rect x="210" y="570" width="14" height="14" rx="2" fill="#f97316"/>
  <text x="230" y="583" font-family="monospace" font-size="15" fill="#666">Async Chunk</text>
  <rect x="360" y="570" width="14" height="14" rx="2" fill="#10b981"/>
  <text x="380" y="583" font-family="monospace" font-size="15" fill="#666">Async Chunk</text>

  <!-- ===== TITLE ===== -->
  <text x="900" y="280" text-anchor="middle" font-family="monospace" font-size="50" font-weight="700" fill="#fff">How</text>
  <text x="900" y="340" text-anchor="middle" font-family="monospace" font-size="50" font-weight="700" fill="#fff">Bundling</text>
  <text x="900" y="400" text-anchor="middle" font-family="monospace" font-size="50" font-weight="700" fill="#fff">Works</text>
  <text x="900" y="440" font-family="monospace" font-size="16" fill="#666" text-anchor="middle">Code splitting, chunks &amp; tree shaking</text>
  <text x="900" y="462" font-family="monospace" font-size="16" fill="#666" text-anchor="middle">visualized with a real Rollup bundler</text>
  </g>
</svg>
